<svg id="图层_1" data-name="图层 1" xmlns="http://www.w3.org/2000/svg" viewBox="0 0 925.23 236.19"><defs><style>.cls-1{fill:#1d1d1b;}</style></defs><g id="Layer_2" data-name="Layer 2"><g id="Layer_1-2" data-name="Layer 1-2"><path class="cls-1" d="M114.09,200.4c63.22,0,67.83-1.84,74.58-17.5h2.76l-10.74,39.6c-2.76,10.12-3.38,11.66-9.21,11.66H34.59l59.54-70.29C129.74,122.74,142,95.73,142,60.13,142,23,131.27,4.27,105.8,4.27,79.71,4.27,79.71,21.15,77.25,39,76,50.05,69.59,57.37,58.53,57.37c-10.13,0-17.19-8-17.19-17.81,0-17.18,20.87-38,64.77-38,29.77,0,77.34,13.5,77.34,60.77,0,38.36-30.38,70.59-71.21,102.51L66.82,200.4Z" transform="translate(-34.59 -0.31)"/><path class="cls-1" d="M463.28,118.64c0,68.76-45.12,117.86-91.46,117.86s-93.31-49.1-93.31-117.86S325.47,1.4,371.82,1.4,463.28,49.94,463.28,118.64Zm-142.41,0c0,81,20.56,115.1,50.95,115.1,30.69,0,49.41-34.07,49.41-115.1,0-81.33-22.4-114.48-49.41-114.48C344.5,4.16,320.87,37.31,320.87,118.64Z" transform="translate(-34.59 -0.31)"/></g></g><path class="cls-1" d="M620.24,200.4c63.22,0,67.83-1.84,74.58-17.5h2.76l-10.74,39.6c-2.76,10.12-3.38,11.66-9.21,11.66H540.74l59.54-70.29c35.61-41.13,47.89-68.14,47.89-103.74C648.17,23,637.42,4.27,612,4.27c-26.09,0-26.09,16.88-28.55,34.68-1.22,11.1-7.66,18.42-18.72,18.42-10.13,0-17.19-8-17.19-17.81,0-17.18,20.87-38,64.77-38,29.77,0,77.34,13.5,77.34,60.77,0,38.36-30.38,70.59-71.21,102.51L573,200.4Z" transform="translate(-34.59 -0.31)"/><path class="cls-1" d="M959.81,117.55c0,68.76-45.12,117.86-91.46,117.86S775,186.31,775,117.55,822,.31,868.35.31,959.81,48.85,959.81,117.55Zm-142.41,0c0,81,20.56,115.1,51,115.1,30.69,0,49.41-34.07,49.41-115.1,0-81.33-22.4-114.48-49.41-114.48C841,3.07,817.4,36.22,817.4,117.55Z" transform="translate(-34.59 -0.31)"/></svg>