<?xml version="1.0" encoding="utf-8"?>
<!-- Generator: Adobe Illustrator 25.0.0, SVG Export Plug-In . SVG Version: 6.00 Build 0)  -->
<svg version="1.1" id="图层_1" xmlns="http://www.w3.org/2000/svg" xmlns:xlink="http://www.w3.org/1999/xlink" x="0px" y="0px"
	 viewBox="0 0 607.4 72.3" style="enable-background:new 0 0 607.4 72.3;" xml:space="preserve">
<style type="text/css">
	.st0{fill:#1D1D1B;}
</style>
<g id="Layer_2">
	<g id="Layer_1-2">
		<path class="st0" d="M128.5,71.1H112V42.5H83.3v28.6H66.8V1.2h16.5v26.7H112V1.2h16.5L128.5,71.1z"/>
		<path class="st0" d="M229.1,1.2v14.4H192v12.2h35.1v14.6H192v14.1h37.1v14.5h-53.6V1.2H229.1z"/>
		<path class="st0" d="M334.5,56.5v14.5h-50V1.2H301v55.3H334.5z"/>
		<path class="st0" d="M434.6,56.5V71h-50V1.2h16.5v55.3H434.6z"/>
		<path class="st0" d="M543.8,50.9c-1.7,4.3-4.2,8.1-7.4,11.4c-3.3,3.2-7.2,5.7-11.5,7.3c-9.5,3.5-19.9,3.5-29.4,0
			c-4.3-1.6-8.1-4.1-11.4-7.3c-3.2-3.2-5.8-7.1-7.5-11.3c-1.8-4.7-2.7-9.8-2.7-14.8c-0.1-5.1,0.8-10.1,2.7-14.8
			c1.7-4.3,4.2-8.2,7.5-11.4c3.3-3.2,7.1-5.7,11.4-7.3c9.5-3.5,19.9-3.5,29.4,0c4.3,1.6,8.2,4.1,11.5,7.3c3.2,3.2,5.8,7.1,7.4,11.4
			c1.8,4.7,2.7,9.8,2.7,14.8C546.5,41.1,545.6,46.2,543.8,50.9z M492.9,45.9c0.9,2.6,2.2,4.9,4,7c1.7,1.9,3.7,3.3,6,4.3
			c4.7,1.9,9.9,1.9,14.6,0c2.3-1,4.3-2.4,6-4.3c1.8-2,3.2-4.4,4-7c1.1-3.2,1.6-6.5,1.5-9.8c0.1-3.3-0.4-6.6-1.5-9.8
			c-0.9-2.6-2.3-5-4-7c-1.7-1.9-3.7-3.3-6-4.3c-4.7-1.9-9.9-1.9-14.6,0c-2.3,1-4.3,2.4-6,4.3c-1.8,2.1-3.1,4.4-4,7
			c-1,3.2-1.6,6.5-1.5,9.8C491.3,39.4,491.8,42.7,492.9,45.9L492.9,45.9z"/>
	</g>
</g>
</svg>
